<svg width="150" height="150" viewBox="0 0 150 150" fill="none" xmlns="http://www.w3.org/2000/svg">
<path d="M111.956 55.8125C111.235 47.3602 107.639 39.4104 101.767 33.2882C95.8953 27.1661 88.1024 23.2415 79.6875 22.1687V18.75C79.6875 17.5068 79.1936 16.3145 78.3146 15.4354C77.4355 14.5564 76.2432 14.0625 75 14.0625C73.7568 14.0625 72.5645 14.5564 71.6854 15.4354C70.8064 16.3145 70.3125 17.5068 70.3125 18.75V22.1687C61.8967 23.2417 54.103 27.1672 48.2309 33.2906C42.3588 39.4141 38.7633 47.3654 38.0437 55.8187L36.4688 68.5188L36.4625 68.5812C35.8674 75.6603 32.6725 82.2683 27.4938 87.1312L27.4312 87.1937C25.925 88.6 24.2875 90.1312 23.2438 93.1875C22.2813 96.0187 21.875 100.006 21.875 106.344C21.875 108.487 22.2625 110.431 23.2375 112.062C24.2437 113.75 25.6938 114.806 27.2563 115.469C28.7563 116.1 30.4125 116.406 31.9875 116.606C33.0437 116.737 34.2188 116.837 35.3938 116.937L37.0125 117.081C45.7125 117.9 58.6625 118.75 75 118.75C88.2235 118.781 101.441 118.176 114.606 116.937C115.781 116.837 116.963 116.737 118.012 116.606C119.588 116.406 121.244 116.106 122.744 115.469C124.417 114.799 125.828 113.604 126.762 112.062C127.737 110.431 128.125 108.487 128.125 106.344C128.125 100.006 127.719 96.0187 126.75 93.1875C125.713 90.1312 124.075 88.6 122.575 87.1875L122.512 87.1312C117.331 82.2693 114.134 75.6612 113.538 68.5812V68.5188L111.956 55.8125ZM75 28.125C82.7351 28.1249 90.1877 31.0317 95.88 36.2691C101.572 41.5064 105.088 48.6917 105.731 56.4V56.4625L107.312 69.1625C108.049 77.7623 111.938 85.7866 118.231 91.6937C119.669 93.0375 120.312 93.6688 120.837 95.2C121.444 96.9938 121.875 100.087 121.875 106.344C121.875 107.781 121.612 108.5 121.4 108.856C121.213 109.169 120.919 109.45 120.3 109.713C119.612 110.006 118.637 110.225 117.237 110.4C116.3 110.525 115.331 110.606 114.238 110.7L112.4 110.863C99.9651 111.983 87.4852 112.529 75 112.5C58.875 112.5 46.125 111.663 37.6 110.863L35.7625 110.7C34.7609 110.619 33.7607 110.521 32.7625 110.406C31.7168 110.307 30.6879 110.076 29.7 109.719C29.075 109.45 28.7875 109.169 28.6 108.856C28.3875 108.5 28.125 107.781 28.125 106.344C28.125 100.087 28.5562 96.9875 29.1625 95.2C29.6875 93.6688 30.3313 93.0375 31.7688 91.6937C38.062 85.7866 41.9506 77.7623 42.6875 69.1625L44.2625 56.4625L44.2688 56.4C44.9115 48.6917 48.4277 41.5064 54.12 36.2691C59.8123 31.0317 67.2649 28.1249 75 28.125ZM47.25 122.187C47.0466 121.401 46.5454 120.725 45.8523 120.303C45.1592 119.88 44.3288 119.743 43.5368 119.922C42.7448 120.101 42.0534 120.58 41.6091 121.26C41.1648 121.94 41.0024 122.765 41.1562 123.562C41.9757 127.197 43.7096 130.561 46.1937 133.337C48.2461 135.631 50.7594 137.466 53.5692 138.721C56.3791 139.977 59.4223 140.626 62.5 140.625C65.5777 140.626 68.6209 139.977 71.4308 138.721C74.2406 137.466 76.7539 135.631 78.8063 133.337C79.3599 132.72 79.6456 131.908 79.6004 131.08C79.5553 130.252 79.1831 129.476 78.5656 128.922C77.9482 128.368 77.1361 128.083 76.308 128.128C75.4799 128.173 74.7036 128.545 74.15 129.163C72.6844 130.802 70.889 132.114 68.8815 133.012C66.8739 133.911 64.6993 134.375 62.5 134.375C59.4368 134.385 56.4388 133.49 53.8816 131.804C51.3245 130.117 49.322 127.713 48.125 124.894C47.7517 124.02 47.4588 123.114 47.25 122.187Z" fill="#DD2E44"/>
</svg>
