<svg width="26" height="26" viewBox="0 0 26 26" fill="none" xmlns="http://www.w3.org/2000/svg">
<path d="M10.5088 0.629997C9.66059 0.355666 8.74243 0.392455 7.91893 0.733768C7.09543 1.07508 6.42044 1.69859 6.01502 2.4925L5.00752 4.4625C4.88779 4.69703 4.69705 4.88777 4.46252 5.0075L2.49127 6.015C1.69736 6.42042 1.07385 7.09541 0.732537 7.91891C0.391224 8.74241 0.354434 9.66057 0.628765 10.5087L1.31127 12.615C1.39229 12.8653 1.39229 13.1347 1.31127 13.385L0.630016 15.4912C0.355685 16.3394 0.392474 17.2576 0.733787 18.0811C1.0751 18.9046 1.69861 19.5796 2.49252 19.985L4.46252 20.9925C4.69705 21.1122 4.88779 21.303 5.00752 21.5375L6.01502 23.5087C6.42044 24.3026 7.09543 24.9262 7.91893 25.2675C8.74243 25.6088 9.66059 25.6456 10.5088 25.3712L12.615 24.6887C12.8653 24.6077 13.1347 24.6077 13.385 24.6887L15.4913 25.37C16.3393 25.6444 17.2573 25.6078 18.0808 25.2667C18.9043 24.9257 19.5794 24.3024 19.985 23.5087L20.9925 21.5375C21.1122 21.303 21.303 21.1122 21.5375 20.9925L23.5088 19.9862C24.3029 19.5808 24.9267 18.9056 25.268 18.0818C25.6093 17.258 25.6459 16.3396 25.3713 15.4912L24.6888 13.385C24.6077 13.1347 24.6077 12.8653 24.6888 12.615L25.37 10.5087C25.6444 9.66072 25.6078 8.74267 25.2668 7.91919C24.9257 7.0957 24.3024 6.42063 23.5088 6.015L21.5375 5.0075C21.303 4.88777 21.1122 4.69703 20.9925 4.4625L19.9863 2.49125C19.5808 1.69707 18.9056 1.07336 18.0818 0.73203C17.2581 0.390698 16.3396 0.35408 15.4913 0.628746L13.385 1.31125C13.1347 1.39227 12.8653 1.39227 12.615 1.31125L10.5088 0.629997ZM6.45002 12.6962L8.21752 10.9287L11.7525 14.465L18.8238 7.39375L20.5925 9.16125L11.7525 17.9987L6.45002 12.6962Z" fill="#0A0A0A"/>
</svg>
