<svg width="65" height="45" viewBox="0 0 65 45" fill="none" xmlns="http://www.w3.org/2000/svg">
<circle cx="2.5" cy="42.5" r="2.5" transform="rotate(-90 2.5 42.5)" fill="#DD2E44"/>
<circle cx="22.5" cy="42.5" r="2.5" transform="rotate(-90 22.5 42.5)" fill="#DD2E44"/>
<circle cx="42.5" cy="42.5" r="2.5" transform="rotate(-90 42.5 42.5)" fill="#DD2E44"/>
<circle cx="62.5" cy="42.5" r="2.5" transform="rotate(-90 62.5 42.5)" fill="#DD2E44"/>
<circle cx="2.5" cy="22.5" r="2.5" transform="rotate(-90 2.5 22.5)" fill="#DD2E44"/>
<circle cx="22.5" cy="22.5" r="2.5" transform="rotate(-90 22.5 22.5)" fill="#DD2E44"/>
<circle cx="42.5" cy="22.5" r="2.5" transform="rotate(-90 42.5 22.5)" fill="#DD2E44"/>
<circle cx="62.5" cy="22.5" r="2.5" transform="rotate(-90 62.5 22.5)" fill="#DD2E44"/>
<circle cx="2.5" cy="2.5" r="2.5" transform="rotate(-90 2.5 2.5)" fill="#DD2E44"/>
<circle cx="22.5" cy="2.5" r="2.5" transform="rotate(-90 22.5 2.5)" fill="#DD2E44"/>
<circle cx="42.5" cy="2.5" r="2.5" transform="rotate(-90 42.5 2.5)" fill="#DD2E44"/>
<circle cx="62.5" cy="2.5" r="2.5" transform="rotate(-90 62.5 2.5)" fill="#DD2E44"/>
</svg>
