<svg width="98" height="46" viewBox="0 0 98 46" fill="none" xmlns="http://www.w3.org/2000/svg">
<circle cx="14.5" cy="43" r="2.5" transform="rotate(-90 14.5 43)" fill="#DD2E44"/>
<circle cx="34.5" cy="43" r="2.5" transform="rotate(-90 34.5 43)" fill="#DD2E44"/>
<circle cx="54.5" cy="43" r="2.5" transform="rotate(-90 54.5 43)" fill="#DD2E44"/>
<circle cx="14.5" cy="23" r="2.5" transform="rotate(-90 14.5 23)" fill="#DD2E44"/>
<circle cx="34.5" cy="23" r="2.5" transform="rotate(-90 34.5 23)" fill="#DD2E44"/>
<circle cx="54.5" cy="23" r="2.5" transform="rotate(-90 54.5 23)" fill="#DD2E44"/>
<circle cx="14.5" cy="3" r="2.5" transform="rotate(-90 14.5 3)" fill="#DD2E44"/>
<circle cx="34.5" cy="3" r="2.5" transform="rotate(-90 34.5 3)" fill="#DD2E44"/>
<circle cx="54.5" cy="3" r="2.5" transform="rotate(-90 54.5 3)" fill="#DD2E44"/>
<circle cx="75" cy="43.5" r="2.5" transform="rotate(-90 75 43.5)" fill="#DD2E44"/>
<circle cx="95" cy="43.5" r="2.5" transform="rotate(-90 95 43.5)" fill="#DD2E44"/>
<circle cx="75" cy="23.5" r="2.5" transform="rotate(-90 75 23.5)" fill="#DD2E44"/>
<circle cx="95" cy="23.5" r="2.5" transform="rotate(-90 95 23.5)" fill="#DD2E44"/>
<circle cx="75" cy="3.5" r="2.5" transform="rotate(-90 75 3.5)" fill="#DD2E44"/>
<circle cx="95" cy="3.5" r="2.5" transform="rotate(-90 95 3.5)" fill="#DD2E44"/>
</svg>
