<svg width="166" height="46" viewBox="0 0 166 46" fill="none" xmlns="http://www.w3.org/2000/svg">
<circle cx="2.5" cy="43" r="2.5" transform="rotate(-90 2.5 43)" fill="#DD2E44"/>
<circle cx="22.5" cy="43" r="2.5" transform="rotate(-90 22.5 43)" fill="#DD2E44"/>
<circle cx="42.5" cy="43" r="2.5" transform="rotate(-90 42.5 43)" fill="#DD2E44"/>
<circle cx="62.5" cy="43" r="2.5" transform="rotate(-90 62.5 43)" fill="#DD2E44"/>
<circle cx="82.5" cy="43" r="2.5" transform="rotate(-90 82.5 43)" fill="#DD2E44"/>
<circle cx="102.5" cy="43" r="2.5" transform="rotate(-90 102.5 43)" fill="#DD2E44"/>
<circle cx="122.5" cy="43" r="2.5" transform="rotate(-90 122.5 43)" fill="#DD2E44"/>
<circle cx="2.5" cy="23" r="2.5" transform="rotate(-90 2.5 23)" fill="#DD2E44"/>
<circle cx="22.5" cy="23" r="2.5" transform="rotate(-90 22.5 23)" fill="#DD2E44"/>
<circle cx="42.5" cy="23" r="2.5" transform="rotate(-90 42.5 23)" fill="#DD2E44"/>
<circle cx="62.5" cy="23" r="2.5" transform="rotate(-90 62.5 23)" fill="#DD2E44"/>
<circle cx="82.5" cy="23" r="2.5" transform="rotate(-90 82.5 23)" fill="#DD2E44"/>
<circle cx="102.5" cy="23" r="2.5" transform="rotate(-90 102.5 23)" fill="#DD2E44"/>
<circle cx="122.5" cy="23" r="2.5" transform="rotate(-90 122.5 23)" fill="#DD2E44"/>
<circle cx="2.5" cy="3" r="2.5" transform="rotate(-90 2.5 3)" fill="#DD2E44"/>
<circle cx="22.5" cy="3" r="2.5" transform="rotate(-90 22.5 3)" fill="#DD2E44"/>
<circle cx="42.5" cy="3" r="2.5" transform="rotate(-90 42.5 3)" fill="#DD2E44"/>
<circle cx="62.5" cy="3" r="2.5" transform="rotate(-90 62.5 3)" fill="#DD2E44"/>
<circle cx="82.5" cy="3" r="2.5" transform="rotate(-90 82.5 3)" fill="#DD2E44"/>
<circle cx="102.5" cy="3" r="2.5" transform="rotate(-90 102.5 3)" fill="#DD2E44"/>
<circle cx="122.5" cy="3" r="2.5" transform="rotate(-90 122.5 3)" fill="#DD2E44"/>
<circle cx="143" cy="43.5" r="2.5" transform="rotate(-90 143 43.5)" fill="#DD2E44"/>
<circle cx="163" cy="43.5" r="2.5" transform="rotate(-90 163 43.5)" fill="#DD2E44"/>
<circle cx="143" cy="23.5" r="2.5" transform="rotate(-90 143 23.5)" fill="#DD2E44"/>
<circle cx="163" cy="23.5" r="2.5" transform="rotate(-90 163 23.5)" fill="#DD2E44"/>
<circle cx="143" cy="3.5" r="2.5" transform="rotate(-90 143 3.5)" fill="#DD2E44"/>
<circle cx="163" cy="3.5" r="2.5" transform="rotate(-90 163 3.5)" fill="#DD2E44"/>
</svg>
