<svg width="40" height="40" viewBox="0 0 40 40" fill="none" xmlns="http://www.w3.org/2000/svg">
<path d="M15 36.6666H25C33.3334 36.6666 36.6667 33.3333 36.6667 24.9999V14.9999C36.6667 6.66659 33.3334 3.33325 25 3.33325H15C6.66671 3.33325 3.33337 6.66659 3.33337 14.9999V24.9999C3.33337 33.3333 6.66671 36.6666 15 36.6666Z" stroke="#DD2E44" stroke-width="1.5" stroke-linecap="round" stroke-linejoin="round"/>
<path d="M20 25.8334C23.2216 25.8334 25.8333 23.2217 25.8333 20.0001C25.8333 16.7784 23.2216 14.1667 20 14.1667C16.7783 14.1667 14.1666 16.7784 14.1666 20.0001C14.1666 23.2217 16.7783 25.8334 20 25.8334Z" stroke="#DD2E44" stroke-width="1.5" stroke-linecap="round" stroke-linejoin="round"/>
<path d="M29.3936 11.6666H29.4128" stroke="#DD2E44" stroke-width="2" stroke-linecap="round" stroke-linejoin="round"/>
</svg>
