<svg width="150" height="150" viewBox="0 0 150 150" fill="none" xmlns="http://www.w3.org/2000/svg">
<path d="M78.125 12.5H79.8312C100.206 12.5 110.406 12.5 117.481 17.4875C119.506 18.9125 121.306 20.6125 122.825 22.5187C128.125 29.1812 128.125 38.7687 128.125 57.9562V73.8625C128.125 92.3812 128.125 101.644 125.194 109.037C120.481 120.931 110.519 130.306 97.8813 134.744C90.025 137.5 80.1937 137.5 60.5062 137.5C49.2687 137.5 43.6437 137.5 39.1562 135.925C31.9375 133.387 26.2437 128.031 23.55 121.238C21.875 117.013 21.875 111.719 21.875 101.137V75" stroke="#DD2E44" stroke-width="5" stroke-linecap="round" stroke-linejoin="round"/>
<path d="M128.125 75C128.125 80.5248 125.93 85.8233 122.024 89.7299C118.117 93.6365 112.819 95.8313 107.294 95.8313C103.131 95.8313 98.225 95.1063 94.1813 96.1875C92.4151 96.6625 90.8047 97.5932 89.5115 98.8865C88.2182 100.18 87.2875 101.79 86.8125 103.556C85.7313 107.6 86.4563 112.506 86.4563 116.669C86.4563 119.404 85.9174 122.113 84.8706 124.641C83.8237 127.168 82.2893 129.464 80.3549 131.399C78.4206 133.333 76.1241 134.867 73.5968 135.914C71.0694 136.961 68.3606 137.5 65.625 137.5M28.125 28.125C31.2 24.9625 39.375 12.5 43.75 12.5M43.75 12.5C48.125 12.5 56.3 24.9625 59.375 28.125M43.75 12.5V62.5" stroke="#DD2E44" stroke-width="5" stroke-linecap="round" stroke-linejoin="round"/>
</svg>
