<svg width="150" height="150" viewBox="0 0 150 150" fill="none" xmlns="http://www.w3.org/2000/svg">
<path d="M75 62.5C88.8071 62.5 100 51.3071 100 37.5C100 23.6929 88.8071 12.5 75 12.5C61.1929 12.5 50 23.6929 50 37.5C50 51.3071 61.1929 62.5 75 62.5Z" stroke="#DD2E44" stroke-width="5"/>
<path d="M124.987 112.5C124.996 111.475 125 110.433 125 109.375C125 93.8438 102.613 81.25 75 81.25C47.3875 81.25 25 93.8438 25 109.375C25 124.906 25 137.5 75 137.5C88.9437 137.5 99 136.519 106.25 134.769" stroke="#DD2E44" stroke-width="5" stroke-linecap="round"/>
</svg>
