<svg width="100" height="100" viewBox="0 0 100 100" fill="none" xmlns="http://www.w3.org/2000/svg">
<g clip-path="url(#clip0_760_457)">
<path d="M100 58.1028C100 56.1917 91.9583 56.7139 91.3194 55.325C90.6805 53.9361 100.231 42.5917 98.8417 40.0472C97.4528 37.5028 84.7139 43.2889 83.9111 42.0139C83.1111 40.7417 84.7222 32.2917 83.3333 31.25C81.9444 30.2083 68.75 44.9056 66.8972 43.1722C65.0444 41.4389 71.1806 14.0056 69.9139 13.4556C68.6472 12.9056 60.4167 17.2472 59.3778 17.0167C58.3389 16.7833 51.8944 0 50 0C48.1056 0 41.6611 16.7833 40.6222 17.0139C39.5833 17.2444 31.3528 12.9028 30.0861 13.4528C28.8194 14.0028 34.9528 41.4333 33.1 43.1694C31.25 44.9056 18.0556 30.2083 16.6667 31.25C15.2778 32.2917 16.8889 40.7417 16.0889 42.0139C15.2861 43.2861 2.54722 37.5 1.15833 40.0472C-0.230556 42.5944 9.32222 53.9361 8.68056 55.325C8.03889 56.7139 0 56.1917 0 58.1028C0 60.0139 23.4389 72.6444 25 74.1333C26.5611 75.6222 16.9056 81.9167 18.2861 83.1028C19.8861 84.4806 28.95 80.7972 47.2222 80.4444V97.2222C47.2222 97.9589 47.5149 98.6655 48.0358 99.1864C48.5567 99.7073 49.2633 100 50 100C50.7367 100 51.4433 99.7073 51.9642 99.1864C52.4851 98.6655 52.7778 97.9589 52.7778 97.2222V80.4444C71.0472 80.7972 80.1139 84.4806 81.7139 83.1028C83.0917 81.9139 73.4389 75.6194 75 74.1333C76.5611 72.6472 100 60.0111 100 58.1028Z" fill="white"/>
</g>
<defs>
<clipPath id="clip0_760_457">
<rect width="100" height="100" fill="white"/>
</clipPath>
</defs>
</svg>
