<svg width="154" height="154" viewBox="0 0 154 154" fill="none" xmlns="http://www.w3.org/2000/svg">
<path d="M154 89.4783C154 86.5352 141.616 87.3394 140.632 85.2005C139.648 83.0616 154.355 65.5912 152.216 61.6727C150.077 57.7543 130.459 66.6649 129.223 64.7014C127.991 62.7422 130.472 49.7292 128.333 48.125C126.194 46.5208 105.875 69.1545 103.022 66.4852C100.168 63.8159 109.618 21.5686 107.667 20.7216C105.717 19.8746 93.0417 26.5607 91.4418 26.2057C89.8419 25.8463 79.9174 0 77 0C74.0826 0 64.1581 25.8463 62.5582 26.2014C60.9583 26.5564 48.2833 19.8703 46.3326 20.7173C44.3819 21.5643 53.8273 63.8073 50.974 66.4809C48.125 69.1546 27.8056 46.5208 25.6667 48.125C23.5278 49.7292 26.0089 62.7422 24.7769 64.7014C23.5406 66.6606 3.92272 57.75 1.78383 61.6727C-0.355056 65.5954 14.3562 83.0616 13.3681 85.2005C12.3799 87.3394 0 86.5352 0 89.4783C0 92.4214 36.0959 111.872 38.5 114.165C40.9041 116.458 26.0346 126.152 28.1606 127.978C30.6246 130.1 44.583 124.428 72.7222 123.884V149.722C72.7222 150.857 73.1729 151.945 73.9751 152.747C74.7774 153.549 75.8655 154 77 154C78.1345 154 79.2226 153.549 80.0248 152.747C80.8271 151.945 81.2778 150.857 81.2778 149.722V123.884C109.413 124.428 123.375 130.1 125.839 127.978C127.961 126.147 113.096 116.454 115.5 114.165C117.904 111.877 154 92.4171 154 89.4783Z" fill="white"/>
<path d="M142 91.5336C142 89.0492 131.546 89.7281 130.715 87.9225C129.885 86.1169 142.3 71.3692 140.494 68.0614C138.689 64.7536 122.128 72.2756 121.084 70.618C120.044 68.9642 122.139 57.9792 120.333 56.625C118.528 55.2708 101.375 74.3772 98.9664 72.1239C96.5578 69.8705 104.535 34.2072 102.888 33.4922C101.241 32.7772 90.5417 38.4214 89.1911 38.1217C87.8405 37.8183 79.4628 16 77 16C74.5372 16 66.1594 37.8183 64.8089 38.1181C63.4583 38.4178 52.7586 32.7736 51.1119 33.4886C49.4653 34.2036 57.4386 69.8633 55.03 72.1203C52.625 74.3772 35.4722 55.2708 33.6667 56.625C31.8611 57.9792 33.9556 68.9642 32.9156 70.618C31.8719 72.2719 15.3114 64.75 13.5058 68.0614C11.7003 71.3728 24.1189 86.1169 23.2847 87.9225C22.4506 89.7281 12 89.0492 12 91.5336C12 94.0181 42.4706 110.438 44.5 112.373C46.5294 114.309 33.9772 122.492 35.7719 124.034C37.8519 125.825 49.635 121.036 73.3889 120.578V142.389C73.3889 143.347 73.7693 144.265 74.4466 144.942C75.1238 145.62 76.0423 146 77 146C77.9577 146 78.8762 145.62 79.5534 144.942C80.2307 144.265 80.6111 143.347 80.6111 142.389V120.578C104.361 121.036 116.148 125.825 118.228 124.034C120.019 122.488 107.471 114.305 109.5 112.373C111.529 110.441 142 94.0144 142 91.5336Z" fill="#DD2E44"/>
<path d="M35.6909 100.6L32.168 90.0311H34.6509L36.9873 98.139H37.1191L39.4482 90.0311H41.9385L38.4155 100.6H35.6909ZM43.7476 100.6V90.0311H50.7495V91.8549H45.9595V94.4037H50.4785V96.1029H45.9595V98.7762H50.7495V100.6H43.7476ZM55.6421 100.6V91.8549H52.4707V90.0311H61.0254V91.8549H57.854V100.6H55.6421ZM62.981 100.6V90.0311H67.3828C68.1836 90.0311 68.8647 90.1678 69.4263 90.4413C69.9927 90.7098 70.4224 91.0956 70.7153 91.5985C71.0132 92.1014 71.1621 92.6996 71.1621 93.3929V93.4076C71.1621 94.0863 70.9937 94.6967 70.6567 95.2386C70.3247 95.7758 69.856 96.1639 69.2505 96.4032L71.4771 100.6H68.9722L67.002 96.7328C66.9873 96.7328 66.9702 96.7328 66.9507 96.7328C66.9312 96.7328 66.9141 96.7328 66.8994 96.7328H65.1929V100.6H62.981ZM65.1929 95.1215H67.1411C67.6929 95.1215 68.1226 94.975 68.4302 94.682C68.7427 94.3842 68.8989 93.974 68.8989 93.4515V93.4369C68.8989 92.9242 68.7402 92.5165 68.4229 92.2137C68.1055 91.911 67.6685 91.7596 67.1118 91.7596H65.1929V95.1215ZM73.396 100.6V90.0311H75.6079V100.6H73.396ZM82.6611 100.871C81.6406 100.871 80.7593 100.646 80.0171 100.197C79.2749 99.7479 78.7036 99.1083 78.3032 98.2782C77.9028 97.4481 77.7026 96.4618 77.7026 95.3192V95.3046C77.7026 94.162 77.9028 93.1757 78.3032 92.3456C78.7036 91.5155 79.2725 90.8783 80.0098 90.434C80.752 89.9847 81.6357 89.7601 82.6611 89.7601C83.4961 89.7601 84.2456 89.9237 84.9097 90.2509C85.5786 90.578 86.1182 91.0297 86.5283 91.6058C86.9385 92.182 87.1777 92.8412 87.2461 93.5834V93.6786H85.1001L85.0928 93.6273C85.0195 93.2318 84.8706 92.8851 84.646 92.5873C84.4214 92.2845 84.1382 92.0502 83.7964 91.8842C83.4595 91.7181 83.0811 91.6351 82.6611 91.6351C82.1094 91.6351 81.6309 91.7841 81.2256 92.0819C80.8203 92.3749 80.5078 92.7972 80.2881 93.349C80.0732 93.8959 79.9658 94.5477 79.9658 95.3046V95.3192C79.9658 96.0712 80.0732 96.723 80.2881 97.2748C80.5078 97.8265 80.8203 98.2513 81.2256 98.5492C81.6309 98.847 82.1118 98.996 82.6685 98.996C83.0933 98.996 83.4717 98.9203 83.8037 98.7689C84.1406 98.6127 84.4189 98.3954 84.6387 98.1171C84.8633 97.8339 85.0122 97.5043 85.0854 97.1283L85.1001 97.0624H87.2534V97.1503C87.1753 97.8876 86.9336 98.5345 86.5283 99.0912C86.123 99.6478 85.5908 100.085 84.9316 100.402C84.2725 100.715 83.5156 100.871 82.6611 100.871ZM93.9111 100.871C92.8662 100.871 91.9629 100.646 91.2012 100.197C90.4395 99.743 89.8511 99.101 89.436 98.2709C89.0259 97.4408 88.8208 96.4569 88.8208 95.3192V95.3046C88.8208 94.162 89.0283 93.1781 89.4434 92.3529C89.8633 91.5228 90.4541 90.8832 91.2158 90.434C91.9775 89.9847 92.876 89.7601 93.9111 89.7601C94.9512 89.7601 95.8496 89.9847 96.6064 90.434C97.3682 90.8832 97.9565 91.5228 98.3716 92.3529C98.7866 93.183 98.9941 94.1669 98.9941 95.3046V95.3192C98.9941 96.4569 98.7866 97.4408 98.3716 98.2709C97.9614 99.101 97.3755 99.743 96.6138 100.197C95.8521 100.646 94.9512 100.871 93.9111 100.871ZM93.9111 98.996C94.4824 98.996 94.9805 98.8446 95.4053 98.5419C95.8301 98.2391 96.1572 97.8119 96.3867 97.2601C96.6211 96.7084 96.7383 96.0614 96.7383 95.3192V95.3046C96.7383 94.5575 96.6211 93.9105 96.3867 93.3636C96.1572 92.8119 95.8301 92.3871 95.4053 92.0892C94.9805 91.7865 94.4824 91.6351 93.9111 91.6351C93.3398 91.6351 92.8418 91.7865 92.417 92.0892C91.9922 92.3871 91.6626 92.8119 91.4282 93.3636C91.1938 93.9105 91.0767 94.5575 91.0767 95.3046V95.3192C91.0767 96.0614 91.1914 96.7084 91.4209 97.2601C91.6553 97.8119 91.9824 98.2391 92.4023 98.5419C92.8271 98.8446 93.3301 98.996 93.9111 98.996ZM101.096 100.6V90.0311H102.942L108.384 97.5458L106.838 96.7621H107.937V90.0311H110.054V100.6H108.223L102.766 93.056L104.319 93.8397H103.213V100.6H101.096ZM112.625 100.6V90.0311H114.47L119.912 97.5458L118.367 96.7621H119.465V90.0311H121.582V100.6H119.751L114.294 93.056L115.847 93.8397H114.741V100.6H112.625Z" fill="white"/>
</svg>
