<svg width="24" height="46" viewBox="0 0 24 46" fill="none" xmlns="http://www.w3.org/2000/svg">
<g clip-path="url(#clip0_1063_725)">
<path d="M23.9983 13.6792L11.9975 6.83965L0 13.6792V6.83965L11.9992 0L24 6.83965V13.6792H23.9983Z" fill="#A435F0"/>
<path d="M0 19.4227H6.28566V34.5C6.28566 38.3953 9.23212 40.2941 11.9992 40.2941C14.7901 40.2941 17.7143 38.3447 17.7143 34.4477V19.4227H24V34.8591C24 38.4476 22.8573 41.2165 20.5719 43.1152C18.2848 45.0123 15.4289 45.9364 11.9462 45.9364C8.46684 45.9364 5.60925 45.014 3.37687 43.1153C1.14272 41.218 0 38.5521 0 35.0125V19.4227Z" fill="black"/>
</g>
<defs>
<clipPath id="clip0_1063_725">
<rect width="24" height="46" fill="white"/>
</clipPath>
</defs>
</svg>
